<svg width="108" height="62" viewBox="0 0 108 62" fill="none" xmlns="http://www.w3.org/2000/svg">
  <g filter="url(#filter0_d)">
    <path fill-rule="evenodd" clip-rule="evenodd" d="M23.0163 0.125455C22.619 0.270295 21.8572 0.973611 21.5798 1.45166C21.4485 1.6781 21.3121 3.11323 21.2554 4.86771L21.1576 7.89335L17.3422 8.00169C15.2437 8.06123 13.5005 8.12701 13.4684 8.14809C13.4364 8.16898 13.2933 8.46296 13.1509 8.80124C12.7842 9.67107 13.0225 10.3633 13.8302 10.7751C14.4526 11.0925 15.2711 11.1154 24.3541 11.0679L34.2031 11.0166L34.6752 10.4689C35.2544 9.79717 35.2751 9.18169 34.7418 8.50531L34.3364 7.99096H29.3611H24.386V5.55092V3.11089H50.3133H76.2406L76.1896 23.4608L76.1385 43.8107L64.7357 43.861C55.714 43.9009 53.315 43.8601 53.2473 43.6658C52.3384 41.0575 51.5166 39.8063 49.9151 38.5923C47.3721 36.6645 43.7303 36.3766 40.794 37.871C39.0181 38.7748 37.3914 40.7368 36.6806 42.8321L36.3485 43.8107L30.3672 43.8622L24.386 43.9139V39.4213V34.9289H27.0274C29.408 34.9289 29.7076 34.8903 30.0602 34.5385C30.6552 33.9449 30.6456 32.9145 30.0392 32.2937C29.6673 31.9129 29.4004 31.9033 19.0808 31.9033H8.50352L8.0312 32.451C7.45204 33.1227 7.4313 33.7382 7.96467 34.4146L8.37008 34.9289H14.8128H21.2554V40.4706C21.2554 45.6348 21.2808 46.0436 21.6293 46.473L22.003 46.9339L29.1897 47.0315L36.3763 47.1291L36.6101 47.9099C37.5221 50.9561 40.2019 53.2924 43.4622 53.8835C47.4032 54.5984 51.8003 51.9405 52.9101 48.1729L53.2461 47.0321L67.4435 47.0317L81.6409 47.0315L81.8906 48.0036C82.431 50.1071 84.2616 52.1792 86.4716 53.1886C91.0927 55.2993 96.4386 53.0108 98.1344 48.1959L98.5101 47.1291L100.345 47.0315C102.379 46.9232 102.988 46.6604 103.645 45.6058C104.013 45.0143 104.031 44.6819 103.978 39.2234C103.923 33.5563 103.915 33.4464 103.426 32.2937C103.153 31.6495 100.971 27.6088 98.5762 23.3144C93.9977 15.1018 93.4125 14.2657 91.963 13.8642C91.4989 13.7356 88.9109 13.6536 85.2963 13.653L79.3881 13.6518L79.3286 7.73797C79.2626 1.18989 79.2597 1.1735 77.9378 0.369458C77.3256 -0.00279335 76.7439 -0.0106017 50.3112 0.00384331C35.4604 0.0118466 23.1778 0.0666988 23.0163 0.125455ZM22.1359 14.4732C21.2937 14.955 21.2681 15.1184 21.2616 20.0447L21.2554 24.7784H18.8986C16.6571 24.7784 16.5182 24.8018 16.0615 25.2576C15.426 25.8914 15.426 26.7886 16.0615 27.4224L16.5417 27.9016H30.9054C45.1404 27.9016 45.2737 27.8979 45.7845 27.497C46.5128 26.9256 46.5128 25.7544 45.7845 25.1831C45.2776 24.7852 45.0946 24.7784 34.8275 24.7784H24.386V20.0785V15.3786L23.8141 14.808C23.2046 14.2 22.7663 14.1125 22.1359 14.4732ZM4.47211 16.8838C3.80314 17.3511 3.85558 18.7515 4.5629 19.3065C5.07553 19.7088 5.2346 19.7176 11.0371 19.6623L16.9859 19.6055L17.3596 19.1447C17.8787 18.505 17.8427 17.5311 17.2807 17.0042C16.8362 16.5877 16.7178 16.5799 10.8673 16.5799C5.7893 16.5799 4.8425 16.6248 4.47211 16.8838ZM91.425 17.1415C92.0711 17.8942 100.327 32.9174 100.603 33.8421C100.819 34.5682 100.89 35.9243 100.89 39.3657V43.9268L99.7015 43.8688L98.5132 43.8107L98.182 42.8321C97.475 40.744 95.817 38.7606 94.0089 37.8404C89.2431 35.4148 83.3312 37.9294 81.8086 43.0299C81.5758 43.8101 81.5746 43.8107 80.4712 43.8692L79.3669 43.9278V30.3514V16.7751H85.2387C90.74 16.7751 91.1303 16.7981 91.425 17.1415ZM46.4787 40.3101C47.6854 40.6675 49.0677 41.8399 49.6688 43.0154C50.615 44.8655 50.2628 47.4264 48.8406 49.0384C47.3976 50.674 44.6554 51.3127 42.7162 50.4649C41.5907 49.973 40.3324 48.7081 39.8458 47.5795C39.3103 46.3378 39.3545 44.2456 39.9419 43.0383C40.755 41.3665 42.8244 40.0378 44.6503 40.0144C45.0882 40.0087 45.9109 40.1418 46.4787 40.3101ZM91.9331 40.3911C95.6652 41.7843 96.6325 46.7678 93.6853 49.4183C92.5618 50.4288 91.6292 50.7917 90.1283 50.8028C87.1044 50.8251 84.8864 48.7764 84.6938 45.783C84.5819 44.043 85.0558 42.7968 86.2881 41.5902C87.8197 40.0905 89.928 39.6427 91.9331 40.3911Z" fill="#58357B"/>
  </g>
  <defs>
    <filter id="filter0_d" x="0" y="0" width="108" height="62" filterUnits="userSpaceOnUse" color-interpolation-filters="sRGB">
      <feFlood flood-opacity="0" result="BackgroundImageFix"/>
      <feColorMatrix in="SourceAlpha" type="matrix" values="0 0 0 0 0 0 0 0 0 0 0 0 0 0 0 0 0 0 127 0"/>
      <feOffset dy="4"/>
      <feGaussianBlur stdDeviation="2"/>
      <feColorMatrix type="matrix" values="0 0 0 0 0.345098 0 0 0 0 0.427451 0 0 0 0 0.803922 0 0 0 0.25 0"/>
      <feBlend mode="normal" in2="BackgroundImageFix" result="effect1_dropShadow"/>
      <feBlend mode="normal" in="SourceGraphic" in2="effect1_dropShadow" result="shape"/>
    </filter>
  </defs>
</svg>
