<svg width="56" height="62" viewBox="0 0 56 62" fill="none" xmlns="http://www.w3.org/2000/svg">
  <g filter="url(#filter0_d)">
    <path fill-rule="evenodd" clip-rule="evenodd" d="M24.1458 0.499518C21.2646 1.28092 18.8917 2.64087 16.8873 4.66C13.4129 8.15877 12.2026 11.8145 12.2026 18.808C12.2026 23.4172 12.2034 23.4212 13.2797 24.6557C13.9066 25.3749 14.3568 26.2988 14.3568 26.8657C14.3568 28.1772 16.138 29.9505 17.4707 29.9657C18.2889 29.9747 18.6828 30.3038 19.5021 31.6623L20.5185 33.3473L19.715 35.075C18.9348 36.7528 18.8271 36.8309 16.0059 37.767C12.3674 38.9744 11.3345 39.49 9.40543 41.064C6.26104 43.6292 3.79198 48.7551 4.01387 52.2564L4.12445 54H28H51.8756L51.9861 52.2564C52.208 48.7551 49.739 43.6292 46.5946 41.064C44.6655 39.49 43.6326 38.9744 39.9941 37.767C37.1707 36.8302 37.0655 36.7538 36.2821 35.0688L35.4757 33.335L36.5751 31.5892C37.6314 29.9118 38.0949 28.7522 38.5659 26.6094C38.7641 25.709 38.9336 25.615 40.3614 25.615C41.6816 25.615 42.0898 25.4338 42.8678 24.5024C43.7611 23.4331 43.7974 23.2111 43.7974 18.7928C43.7974 11.8723 42.5781 8.14611 39.2039 4.75546C35.2 0.732383 29.3665 -0.916478 24.1458 0.499518ZM33.9082 3.52315C37.6791 5.39259 40.7585 9.4341 41.4425 13.4113C41.6679 14.7213 41.6403 14.7672 40.6311 14.7672C39.6653 14.7672 39.5698 14.6446 39.3651 13.139C38.9343 9.97541 36.7209 6.93297 33.645 5.27796C32.3238 4.56671 31.5982 4.46185 28 4.46185C24.4018 4.46185 23.6762 4.56671 22.355 5.27796C19.2791 6.93297 17.0657 9.97541 16.6349 13.139C16.4302 14.6446 16.3347 14.7672 15.3689 14.7672C14.3597 14.7672 14.3321 14.7213 14.5575 13.4113C15.3959 8.53663 19.5437 3.96574 24.3842 2.58265C27.1254 1.79908 31.2535 2.20696 33.9082 3.52315ZM32.4911 7.12497C34.1229 7.87166 36.1091 9.98119 36.8411 11.7461C37.3725 13.0265 37.5168 15.852 37.0512 15.852C36.8953 15.852 35.8423 15.6094 34.7114 15.3125C32.0976 14.6269 29.6322 13.369 27.6762 11.7233C26.2896 10.5565 25.9934 10.4527 24.6463 10.6603C22.9463 10.9221 21.5173 11.5693 19.832 12.8396C18.5302 13.8209 18.4049 13.5646 19.2221 11.5917C19.9581 9.81414 21.7374 7.96676 23.5121 7.13763C25.4954 6.21087 30.4777 6.20364 32.4911 7.12497ZM27.4956 14.2628C29.8142 15.9294 33.8515 17.6332 35.5396 17.6578C37.2407 17.6827 37.4493 18.0798 37.1797 20.7834C36.5036 27.5607 35.8046 29.6811 33.5043 31.9309C30.1262 35.2352 24.5203 34.7593 21.517 30.9141L20.7673 29.9541H21.8818C22.5531 29.9541 23.0802 30.175 23.208 30.5099C23.7512 31.9364 27.5232 32.6303 29.4361 31.6558C31.5508 30.5786 31.684 27.5495 29.6713 26.3132C27.6923 25.0979 23.8101 25.6479 23.208 27.2288C23.0615 27.6132 22.5054 27.7846 21.406 27.7846H19.8159L19.4342 25.5246C19.2246 24.2818 18.9431 22.0041 18.8095 20.463C18.578 17.7959 18.6142 17.5924 19.5631 16.2129C20.8057 14.4071 22.4544 13.3328 25.0635 12.6288C25.1267 12.6118 26.2214 13.3469 27.4956 14.2628ZM16.5142 18.2928C16.5157 19.0387 16.6205 20.5151 16.7469 21.5738L16.9763 23.4993L15.7563 23.3818L14.5363 23.2646L14.4326 20.1007L14.3288 16.9368H15.4199C16.441 16.9368 16.5114 17.0239 16.5142 18.2928ZM41.5674 20.1007L41.4637 23.2646L40.2437 23.3818L39.0237 23.4993L39.2531 21.5738C39.3795 20.5151 39.4843 19.0387 39.4858 18.2928C39.4886 17.0239 39.559 16.9368 40.5801 16.9368H41.6712L41.5674 20.1007ZM17.387 26.5616C17.6484 27.6103 17.4757 27.9805 16.8941 27.6186C16.432 27.3311 16.3782 25.615 16.8313 25.615C17.0072 25.615 17.2574 26.041 17.387 26.5616ZM28.7181 28.3269C29.4078 29.1637 28.5357 29.9541 26.9229 29.9541C26.1625 29.9541 25.3798 29.7176 25.1278 29.4117C24.4381 28.575 25.3101 27.7846 26.9229 27.7846C27.6833 27.7846 28.466 28.021 28.7181 28.3269ZM34.6094 36.3901C35.2004 37.7095 35.1953 37.8422 34.4845 39.7565C34.077 40.8525 33.51 42.0649 33.2243 42.4507C32.7248 43.1247 32.638 43.0861 31.0151 41.4647L29.3259 39.7775L31.4453 37.4087C32.611 36.1059 33.6616 35.0348 33.7797 35.0283C33.8978 35.0218 34.2712 35.6347 34.6094 36.3901ZM24.7084 41.3956L23.0407 43.0752L22.3377 41.6672C20.9278 38.8446 20.7185 37.7081 21.3726 36.4338L21.9672 35.2757L24.1717 37.4958L26.3761 39.716L24.7084 41.3956ZM29.434 36.4342C29.439 36.7849 28.2147 37.9091 27.8273 37.9091C27.5961 37.9091 27.05 37.5262 26.6134 37.0583L25.82 36.2075L27.6259 36.2447C28.619 36.2653 29.4325 36.3507 29.434 36.4342ZM20.2295 42.0505C20.991 43.7279 22.5661 46.583 23.73 48.3953C24.8937 50.208 25.8458 51.7628 25.8458 51.8511C25.8458 51.9393 21.4028 52.0112 15.9725 52.0112C4.78147 52.0112 5.62807 52.294 6.63192 48.8896C7.31192 46.5827 9.56736 43.4057 11.4645 42.0816C12.618 41.2763 17.7166 39.1067 18.6652 39.0174C18.7639 39.008 19.4676 40.373 20.2295 42.0505ZM40.8483 40.2653C42.0895 40.7151 43.7593 41.5395 44.5585 42.0975C46.4352 43.4072 48.691 46.5931 49.3681 48.8896C50.3719 52.294 51.2185 52.0112 40.0275 52.0112C34.5972 52.0112 30.1542 51.9393 30.1542 51.8511C30.1542 51.7628 31.1063 50.208 32.27 48.3953C33.4339 46.583 35.009 43.7297 35.7705 42.0544C37.3172 38.6522 36.8505 38.8167 40.8483 40.2653ZM31.5903 45.286C31.5903 45.6975 28.2639 50.8816 28 50.8816C27.7673 50.8816 24.4097 45.7221 24.4097 45.3648C24.4097 45.2151 25.1698 44.2063 26.0986 43.1226L27.7871 41.1526L29.6889 43.0441C30.7347 44.0844 31.5903 45.0933 31.5903 45.286ZM38.7688 42.4316C38.3713 42.9139 38.3871 43.1012 38.8636 43.5814C39.6337 44.3567 40.6487 43.926 40.5015 42.8865C40.3611 41.8961 39.4147 41.6476 38.7688 42.4316ZM42.6007 44.2974C42.1376 44.7638 42.3702 45.5586 43.2516 46.5201C43.7417 47.0542 44.509 47.9469 44.957 48.5038C45.697 49.4226 45.837 49.4682 46.4757 48.9952C47.0714 48.5548 47.1173 48.3364 46.773 47.5756C45.7451 45.3033 43.4175 43.4748 42.6007 44.2974Z" fill="#58357B"/>
  </g>
  <defs>
    <filter id="filter0_d" x="0" y="0" width="56" height="62" filterUnits="userSpaceOnUse" color-interpolation-filters="sRGB">
      <feFlood flood-opacity="0" result="BackgroundImageFix"/>
      <feColorMatrix in="SourceAlpha" type="matrix" values="0 0 0 0 0 0 0 0 0 0 0 0 0 0 0 0 0 0 127 0"/>
      <feOffset dy="4"/>
      <feGaussianBlur stdDeviation="2"/>
      <feColorMatrix type="matrix" values="0 0 0 0 0.345098 0 0 0 0 0.427451 0 0 0 0 0.803922 0 0 0 0.25 0"/>
      <feBlend mode="normal" in2="BackgroundImageFix" result="effect1_dropShadow"/>
      <feBlend mode="normal" in="SourceGraphic" in2="effect1_dropShadow" result="shape"/>
    </filter>
  </defs>
</svg>
