<svg width="70" height="62" viewBox="0 0 70 62" fill="none" xmlns="http://www.w3.org/2000/svg">
  <g filter="url(#filter0_d)">
    <path fill-rule="evenodd" clip-rule="evenodd" d="M42.6132 2.86304C39.0235 4.42333 35.8238 5.91849 35.5022 6.18562C34.6996 6.85137 34.7054 17.6629 35.5101 21.4604C36.2776 25.0806 38.1083 28.6085 40.6807 31.4224C43.032 33.9955 49.1083 38.3153 50.3759 38.3153C51.6435 38.3153 57.7198 33.9955 60.0712 31.4224C64.4416 26.6405 65.816 22.1604 65.8275 12.6597C65.8341 6.81344 65.8003 6.56652 64.907 5.98568C63.0186 4.75765 51.296 -0.0250473 50.2366 9.87895e-05C49.6331 0.0145269 46.2025 1.30275 42.6132 2.86304ZM57.4869 6.78046L62.1245 8.75505L62.1138 11.2697C62.0684 22.033 60.1553 27.0103 54.3552 31.4533C50.5668 34.3554 50.5651 34.3558 48.2628 32.8454C44.9415 30.6667 42.0105 27.453 40.5685 24.4087C39.2523 21.6298 39.2457 21.5841 39.2457 15.0634V8.51059L44.8038 6.13202C49.9678 3.92206 50.4505 3.79097 51.6056 4.27987C52.2895 4.56926 54.9364 5.69465 57.4869 6.78046ZM7.20963 11.3983C6.59417 11.4918 5.62048 12.1275 5.04542 12.811L4 14.053V32.3862C4 52.6098 4.00371 52.6415 6.52244 53.5195C8.36057 54.1602 61.474 54.1602 63.3121 53.5195C65.5645 52.7342 65.8345 51.6245 65.8345 43.1553C65.8345 35.2178 65.701 34.6015 63.9795 34.6015C62.27 34.6015 62.1245 35.2396 62.1245 42.7224V49.854H34.9173H7.71007V38.3115V26.7691H18.8168C29.8271 26.7691 29.9293 26.7613 30.5654 25.8527C31.3915 24.6737 31.3754 24.4639 30.3827 23.4713C29.5999 22.6884 29.0088 22.6468 18.6342 22.6468H7.71007V18.9367V15.2267H18.8168C29.8271 15.2267 29.9293 15.2188 30.5654 14.3103C31.3915 13.1313 31.3754 12.9215 30.3827 11.9288C29.5974 11.1435 29.0529 11.1072 18.9433 11.1662C13.1049 11.2 7.82508 11.3047 7.20963 11.3983ZM52.6844 14.5052C51.3414 16.1488 49.8709 17.9577 49.4171 18.5245C48.9632 19.0913 48.513 19.4623 48.417 19.349C48.3209 19.2356 47.6469 18.2615 46.9189 17.1847C45.5602 15.1743 44.2951 14.6706 43.2443 15.7213C42.3337 16.6319 42.7344 17.8905 45.0239 21.3108C47.2759 24.6741 48.2323 25.3213 49.5782 24.3926C50.7032 23.6164 58.0022 14.0077 58.0022 13.3032C58.0022 12.2376 57.2222 11.5166 56.07 11.5166C55.3989 11.5166 54.4228 12.3781 52.6844 14.5052ZM12.3271 35.0961C11.691 35.7322 11.691 37.1808 12.3271 37.8169C12.6556 38.1454 14.4492 38.3115 17.6716 38.3115C22.1954 38.3115 22.5528 38.2526 22.9906 37.4351C23.3311 36.7987 23.3373 36.29 23.0137 35.5801C22.5813 34.6303 22.4238 34.6015 17.6947 34.6015C14.4542 34.6015 12.656 34.7672 12.3271 35.0961Z" fill="#58357B"/>
  </g>
  <defs>
    <filter id="filter0_d" x="0" y="0" width="69.8345" height="62" filterUnits="userSpaceOnUse" color-interpolation-filters="sRGB">
      <feFlood flood-opacity="0" result="BackgroundImageFix"/>
      <feColorMatrix in="SourceAlpha" type="matrix" values="0 0 0 0 0 0 0 0 0 0 0 0 0 0 0 0 0 0 127 0"/>
      <feOffset dy="4"/>
      <feGaussianBlur stdDeviation="2"/>
      <feColorMatrix type="matrix" values="0 0 0 0 0.345098 0 0 0 0 0.427451 0 0 0 0 0.803922 0 0 0 0.25 0"/>
      <feBlend mode="normal" in2="BackgroundImageFix" result="effect1_dropShadow"/>
      <feBlend mode="normal" in="SourceGraphic" in2="effect1_dropShadow" result="shape"/>
    </filter>
  </defs>
</svg>
