<svg width="19" height="20" viewBox="0 0 19 20" fill="none" xmlns="http://www.w3.org/2000/svg">
  <path fill-rule="evenodd" clip-rule="evenodd" d="M0.210151 0.2219C-0.0611794 0.5252 -0.0709499 0.963983 0.187705 1.22586C0.381532 1.42201 1.07062 1.60813 2.24744 1.78222C2.5803 1.83153 2.9121 1.91156 2.98472 1.9602C3.05747 2.0087 3.60805 4.58568 4.20841 7.68682C4.80877 10.7878 5.37824 13.4333 5.47396 13.5658C5.63676 13.791 6.00672 13.8064 11.2633 13.8064C15.4601 13.8064 16.919 13.7658 17.0375 13.6458C17.1945 13.4869 18.9911 5.91619 19 5.37613C19.0025 5.22221 18.8959 4.99667 18.7631 4.87508C18.5451 4.67546 17.8723 4.65395 11.8422 4.65395H5.16289L5.03073 4.01929C4.95811 3.6703 4.79663 2.85887 4.67186 2.2162C4.54708 1.57366 4.37399 0.949553 4.28711 0.829435C4.18452 0.687405 3.57874 0.501417 2.55561 0.297658C0.644808 -0.0828693 0.487159 -0.0879466 0.210151 0.2219ZM17.2881 6.2406C17.2881 6.305 17.0274 7.49241 16.7086 8.87944C16.3899 10.2665 16.0881 11.5968 16.038 11.8356L15.9468 12.2699H11.2893H6.63164L6.0767 9.43059C5.77157 7.86906 5.49152 6.48604 5.45456 6.35751C5.39118 6.13732 5.73301 6.12369 11.3377 6.12369C14.6514 6.12369 17.2881 6.17553 17.2881 6.2406ZM6.28373 15.137C5.63003 15.3729 5.16764 15.8092 4.86238 16.4786C4.27443 17.7677 4.87822 19.2419 6.22788 19.8125C7.4422 20.326 8.80136 19.7528 9.3806 18.4828C9.51461 18.1889 9.62433 17.7379 9.62433 17.4807C9.62433 16.4447 8.80519 15.3611 7.81058 15.0816C7.17655 14.9033 6.90376 14.9132 6.28373 15.137ZM13.6777 15.137C13.024 15.3729 12.5616 15.8092 12.2563 16.4786C11.6684 17.7677 12.2721 19.2419 13.6218 19.8125C14.8361 20.326 16.1953 19.7528 16.7745 18.4828C16.9085 18.1889 17.0183 17.7379 17.0183 17.4807C17.0183 16.4447 16.1991 15.3611 15.2045 15.0816C14.5705 14.9033 14.2977 14.9132 13.6777 15.137ZM7.80424 16.7666C8.13987 17.0739 8.12601 17.9003 7.77994 18.2172C7.16097 18.784 6.19725 18.3497 6.19725 17.504C6.19725 17.2456 6.29561 16.9242 6.41576 16.7898C6.69198 16.4809 7.47798 16.4677 7.80424 16.7666ZM15.2296 16.7992C15.5966 17.2096 15.5428 17.8725 15.1117 18.2477C14.7083 18.5988 14.252 18.5765 13.8222 18.1845C13.527 17.9152 13.5199 17.1138 13.8097 16.7898C14.1061 16.4583 14.9296 16.4638 15.2296 16.7992Z" fill="white"/>
</svg>
