<svg width="14" height="15" viewBox="0 0 14 15" fill="none" xmlns="http://www.w3.org/2000/svg">
  <path fill-rule="evenodd" clip-rule="evenodd" d="M6.02088 0.0813604C4.41718 0.464848 3.10372 1.83039 2.88025 3.34642C2.62071 5.10766 3.56598 6.75015 5.28162 7.51932C5.92798 7.80909 6.08912 7.83903 7 7.83903C7.91088 7.83903 8.07202 7.80909 8.71839 7.51932C11.9566 6.06768 11.9723 1.79364 8.74473 0.364421C7.98674 0.0286934 6.76977 -0.0977675 6.02088 0.0813604ZM4.9368 8.88727C2.29198 9.42285 0.335315 11.4863 0.0599036 14.0302C-0.0543663 15.0851 -0.677666 14.9981 7 14.9981C14.689 14.9981 14.0547 15.0884 13.9381 14.0115C13.6978 11.7921 12.072 9.84348 9.82744 9.08492C9.25757 8.89237 8.91275 8.85833 7.26452 8.832C6.21704 8.81527 5.16957 8.84011 4.9368 8.88727Z" fill="white"/>
</svg>
