<svg width="20" height="18" viewBox="0 0 20 18" fill="none" xmlns="http://www.w3.org/2000/svg">
  <path fill-rule="evenodd" clip-rule="evenodd" d="M4.09691 0.194972C2.44242 0.648504 1.17925 1.73769 0.424729 3.36151C0.0331375 4.20427 -0.00168258 4.39103 5.84188e-05 5.64459C0.00179942 6.85611 0.0459941 7.10977 0.39232 7.89724C0.745878 8.70123 1.20497 9.21797 5.27409 13.3923C7.74444 15.9266 9.86003 18 9.97547 18C10.0909 18 12.2073 15.9265 14.6787 13.3923C18.0989 9.88516 19.2418 8.629 19.4639 8.13329C21.0339 4.63008 19.0086 0.717858 15.3008 0.0914864C13.6624 -0.185247 11.9838 0.347878 10.6529 1.56772L9.97547 2.18849L9.27934 1.55052C7.77538 0.172035 5.93567 -0.309211 4.09691 0.194972ZM7.07282 1.48348C7.55856 1.66875 8.13282 2.07217 8.82146 2.7122C9.38541 3.23618 9.9057 3.665 9.97748 3.665C10.0494 3.665 10.528 3.27236 11.0411 2.79234C12.3846 1.5355 12.9703 1.27583 14.4619 1.27583C15.9175 1.27583 16.6628 1.58683 17.6324 2.59888C18.5205 3.52602 18.8569 4.49383 18.7862 5.91928C18.7018 7.62023 18.5503 7.82706 13.9854 12.4787L9.97547 16.5647L5.96554 12.4787C1.40063 7.82706 1.24916 7.62023 1.16479 5.91928C1.0906 4.42311 1.44429 3.45871 2.42501 2.48257C3.663 1.25044 5.45301 0.865577 7.07282 1.48348Z" fill="black"/>
</svg>
