<svg width="55" height="30" viewBox="0 0 55 30" fill="none" xmlns="http://www.w3.org/2000/svg">
  <path fill-rule="evenodd" clip-rule="evenodd" d="M10.4318 0.0696971C10.2138 0.150164 9.79597 0.540895 9.64377 0.806479C9.57175 0.932276 9.49694 1.72957 9.46581 2.70428L9.41215 4.3852L7.31912 4.44538C6.16796 4.47846 5.21172 4.51501 5.19412 4.52672C5.17651 4.53832 5.09805 4.70164 5.01991 4.88958C4.81877 5.37282 4.9495 5.75736 5.39258 5.98619C5.73401 6.16252 6.18299 6.17521 11.1657 6.14885L16.5686 6.12033L16.8276 5.81603C17.1453 5.44287 17.1566 5.10094 16.8641 4.72517L16.6417 4.43942H13.9124H11.1832V3.08385V1.72827H25.4062H39.6292L39.6011 13.0338L39.5731 24.3393L33.3179 24.3672C28.3688 24.3894 27.0528 24.3667 27.0156 24.2588C26.5171 22.8097 26.0663 22.1146 25.1877 21.4402C23.7927 20.3692 21.7949 20.2092 20.1841 21.0395C19.21 21.5416 18.3176 22.6316 17.9276 23.7956L17.7455 24.3393L14.4643 24.3679L11.1832 24.3966V21.9007V19.405H12.6322C13.9381 19.405 14.1024 19.3835 14.2959 19.1881C14.6223 18.8583 14.617 18.2858 14.2844 17.9409C14.0803 17.7294 13.9339 17.7241 8.2729 17.7241H2.4705L2.2114 18.0284C1.89369 18.4015 1.88231 18.7434 2.17491 19.1192L2.3973 19.405H5.93161H9.46581V22.4836C9.46581 25.3527 9.47977 25.5798 9.67093 25.8184L9.87594 26.0744L13.8183 26.1286L17.7607 26.1828L17.889 26.6166C18.3893 28.3089 19.8593 29.6069 21.6478 29.9353C23.8098 30.3324 26.2219 28.8558 26.8307 26.7627L27.015 26.1289L34.8033 26.1287L42.5916 26.1286L42.7285 26.6687C43.025 27.8373 44.0292 28.9884 45.2416 29.5492C47.7766 30.7218 50.7092 29.4504 51.6395 26.7755L51.8455 26.1828L52.8519 26.1286C53.9681 26.0684 54.302 25.9225 54.6624 25.3365C54.8644 25.0079 54.874 24.8233 54.8451 21.7908C54.8152 18.6424 54.8103 18.5813 54.5422 17.9409C54.3925 17.5831 53.1953 15.3382 51.8818 12.9524C49.3702 8.38989 49.0492 7.92542 48.254 7.70234C47.9994 7.63088 46.5797 7.58533 44.5968 7.585L41.3557 7.58435L41.3231 4.29887C41.2869 0.661053 41.2853 0.651944 40.5602 0.205255C40.2243 -0.00155186 39.9052 -0.00588983 25.405 0.00213517C17.2583 0.00658146 10.5204 0.0370549 10.4318 0.0696971ZM9.94882 8.04069C9.48685 8.30834 9.47279 8.39911 9.46925 11.136L9.46581 13.7658H8.17297C6.94335 13.7658 6.86714 13.7788 6.61662 14.032C6.268 14.3841 6.268 14.8826 6.61662 15.2347L6.88002 15.5009H14.7595C22.5685 15.5009 22.6415 15.4989 22.9218 15.2761C23.3213 14.9587 23.3213 14.308 22.9218 13.9906C22.6437 13.7696 22.5433 13.7658 16.9111 13.7658H11.1832V11.1547V8.54367L10.8694 8.22668C10.5351 7.88887 10.2947 7.84029 9.94882 8.04069ZM0.258986 9.3799C-0.107991 9.63952 -0.0792251 10.4175 0.308789 10.7258C0.590005 10.9493 0.677268 10.9542 3.86038 10.9235L7.12367 10.892L7.32868 10.6359C7.61344 10.2805 7.59369 9.7395 7.28542 9.44681C7.04156 9.21538 6.97662 9.21104 3.76721 9.21104C0.981561 9.21104 0.46217 9.23599 0.258986 9.3799ZM47.9588 9.52304C48.3133 9.94121 52.8422 18.2874 52.9935 18.8011C53.1123 19.2046 53.1509 19.9579 53.1509 21.8698V24.4038L52.4991 24.3716L51.8473 24.3393L51.6655 23.7956C51.2777 22.6356 50.3682 21.5337 49.3763 21.0224C46.762 19.6749 43.5189 21.0719 42.6836 23.9055C42.5558 24.3389 42.5552 24.3393 41.9499 24.3718L41.3441 24.4043V16.8619V9.31949H44.5653C47.5831 9.31949 47.7972 9.33229 47.9588 9.52304ZM23.3026 22.3945C23.9646 22.5931 24.7229 23.2444 25.0526 23.8975C25.5717 24.9253 25.3785 26.348 24.5983 27.2436C23.8067 28.1522 22.3024 28.5071 21.2386 28.0361C20.6212 27.7628 19.9309 27.0601 19.664 26.433C19.3702 25.7432 19.3945 24.5809 19.7167 23.9101C20.1628 22.9814 21.2979 22.2432 22.2996 22.2302C22.5398 22.2271 22.9911 22.301 23.3026 22.3945ZM48.2376 22.4395C50.2849 23.2135 50.8156 25.9821 49.1988 27.4546C48.5825 28.016 48.0709 28.2176 47.2475 28.2238C45.5887 28.2362 44.3719 27.098 44.2663 25.435C44.2049 24.4683 44.4649 23.776 45.1409 23.1057C45.9811 22.2725 47.1376 22.0237 48.2376 22.4395Z" fill="#757575"/>
</svg>
