<svg width="16" height="14" viewBox="0 0 16 14" fill="none" xmlns="http://www.w3.org/2000/svg">
  <path fill-rule="evenodd" clip-rule="evenodd" d="M3.27753 0.151645C1.95393 0.504392 0.943403 1.35154 0.339783 2.6145C0.02651 3.26999 -0.00134607 3.41525 4.6735e-05 4.39024C0.00143954 5.33253 0.0367953 5.52982 0.313856 6.14229C0.596702 6.76762 0.963973 7.16953 4.21927 10.4163C6.19555 12.3874 7.88802 14 7.98038 14C8.07273 14 9.76584 12.3873 11.743 10.4163C14.4791 7.68846 15.3934 6.71145 15.5712 6.32589C16.8271 3.60118 15.2069 0.558334 12.2406 0.0711561C10.9299 -0.144081 9.58703 0.270572 8.52228 1.21934L7.98038 1.70216L7.42347 1.20596C6.2203 0.133805 4.74854 -0.240497 3.27753 0.151645ZM5.65825 1.15382C6.04685 1.29791 6.50626 1.61169 7.05716 2.10949C7.50833 2.51703 7.92456 2.85055 7.98198 2.85055C8.03952 2.85055 8.42243 2.54517 8.83288 2.17182C9.90769 1.19428 10.3762 0.992313 11.5695 0.992313C12.734 0.992313 13.3302 1.2342 14.1059 2.02135C14.8164 2.74246 15.0855 3.4952 15.0289 4.60388C14.9614 5.92685 14.8403 6.08772 11.1883 9.70566L7.98038 12.8837L4.77243 9.70566C1.1205 6.08772 0.999329 5.92685 0.931832 4.60388C0.872477 3.4402 1.15543 2.69011 1.94001 1.93088C2.9304 0.972562 4.36241 0.673226 5.65825 1.15382Z" fill="#757575"/>
</svg>
