<svg width="11" height="15" viewBox="0 0 11 15" fill="none" xmlns="http://www.w3.org/2000/svg">
  <path fill-rule="evenodd" clip-rule="evenodd" d="M4.43461 0.0619267C2.78165 0.415757 1.40872 1.42633 0.632379 2.8607C-0.318026 4.61662 -0.201681 6.47769 1.01205 8.93726C2.11595 11.1741 4.93388 15.0045 5.47224 15C5.74107 14.9977 5.78596 14.9545 6.77372 13.7486C9.4125 10.527 11 7.40557 11 5.43885C11 3.09745 9.50594 1.029 7.25437 0.253276C6.60007 0.0278467 5.07669 -0.0754959 4.43461 0.0619267ZM6.62765 2.92174C7.29498 3.25462 7.62468 3.57397 7.93768 4.19072C9.04036 6.36362 7.01394 8.69439 4.6222 8.00417C4.02755 7.83257 3.24021 7.10366 2.96223 6.46746C2.62867 5.70397 2.69188 4.6938 3.11552 4.01601C3.4331 3.50782 4.16028 2.9479 4.72623 2.7757C5.18255 2.63687 6.21551 2.71626 6.62765 2.92174Z" fill="#757575"/>
</svg>
