<svg width="25" height="12" viewBox="0 0 25 12" fill="none" xmlns="http://www.w3.org/2000/svg">
  <path fill-rule="evenodd" clip-rule="evenodd" d="M18.2618 0.283681C17.6707 0.869665 17.9172 1.34067 19.7888 3.20171L21.5777 4.98031H11.1222C0.888833 4.98031 0.6595 4.98742 0.333333 5.31072C0.15 5.49245 0 5.78982 0 5.97155C0 6.15327 0.15 6.45064 0.333333 6.63237C0.6595 6.95568 0.888833 6.96278 11.1222 6.96278H21.5777L19.7888 8.74138C18.2487 10.2728 18 10.5948 18 11.0579C18 11.6718 18.5313 12.0301 19.196 11.8643C19.409 11.8112 20.8022 10.5514 22.2917 9.06486C24.2812 7.07925 25 6.25669 25 5.9656C25 5.67318 24.2665 4.84237 22.2028 2.79679C19.28 -0.100422 18.8963 -0.345092 18.2618 0.283681Z" fill="#C4C4C4"/>
</svg>
