<svg width="27" height="30" viewBox="0 0 27 30" fill="none" xmlns="http://www.w3.org/2000/svg">
  <path fill-rule="evenodd" clip-rule="evenodd" d="M11.1921 0.27751C9.59143 0.711622 8.27319 1.46715 7.1596 2.58889C5.22941 4.53265 4.55702 6.56359 4.55702 10.4489C4.55702 13.0096 4.55742 13.0118 5.15541 13.6976C5.50367 14.0972 5.75379 14.6104 5.75379 14.9254C5.75379 15.654 6.74332 16.6392 7.48372 16.6476C7.9383 16.6526 8.1571 16.8354 8.61228 17.5901L9.17695 18.5263L8.73056 19.4861C8.29713 20.4182 8.23729 20.4616 6.66992 20.9817C4.64858 21.6524 4.07472 21.9389 3.00302 22.8134C1.25613 24.2384 -0.115564 27.0862 0.00770334 29.0313L0.0691374 30H13.3333H26.5975L26.659 29.0313C26.7822 27.0862 25.4105 24.2384 23.6636 22.8134C22.5919 21.9389 22.0181 21.6524 19.9967 20.9817C18.4282 20.4612 18.3697 20.4188 17.9345 19.4827L17.4865 18.5194L18.0973 17.5496C18.6841 16.6177 18.9416 15.9734 19.2033 14.783C19.3134 14.2828 19.4075 14.2306 20.2008 14.2306C20.9342 14.2306 21.161 14.1299 21.5932 13.6124C22.0895 13.0184 22.1096 12.8951 22.1096 10.4405C22.1096 6.59573 21.4323 4.52562 19.5577 2.64192C17.3333 0.40688 14.0925 -0.509154 11.1921 0.27751ZM16.6157 1.95731C18.7106 2.99588 20.4214 5.24117 20.8014 7.4507C20.9266 8.1785 20.9113 8.20402 20.3506 8.20402C19.814 8.20402 19.761 8.13592 19.6473 7.29943C19.4079 5.54189 18.1783 3.85165 16.4695 2.9322C15.7354 2.53706 15.3323 2.4788 13.3333 2.4788C11.3343 2.4788 10.9312 2.53706 10.1972 2.9322C8.48841 3.85165 7.25873 5.54189 7.01938 7.29943C6.90568 8.13592 6.85263 8.20402 6.31607 8.20402C5.75539 8.20402 5.74003 8.1785 5.86529 7.4507C6.33103 4.74257 8.63541 2.20319 11.3246 1.43481C12.8474 0.999489 15.1409 1.22609 16.6157 1.95731ZM15.8284 3.95832C16.735 4.37315 17.8384 5.54511 18.2451 6.52563C18.5403 7.23696 18.6205 8.80667 18.3618 8.80667C18.2752 8.80667 17.6902 8.67188 17.0619 8.50695C15.6098 8.12607 14.2401 7.4272 13.1534 6.51297C12.3831 5.86471 12.2185 5.80706 11.4702 5.92237C10.5257 6.06781 9.73185 6.42739 8.79558 7.1331C8.07233 7.6783 8.00272 7.53587 8.4567 6.43985C8.86559 5.4523 9.85412 4.42598 10.8401 3.96535C11.9419 3.45048 14.7098 3.44647 15.8284 3.95832ZM13.0531 7.92378C14.3412 8.84966 16.5842 9.79623 17.522 9.80989C18.4671 9.82375 18.583 10.0443 18.4332 11.5463C18.0576 15.3115 17.6692 16.4895 16.3913 17.7394C14.5145 19.5751 11.4002 19.3107 9.73165 17.1745L9.31518 16.6412H9.93431C10.3073 16.6412 10.6001 16.7639 10.6711 16.9499C10.9729 17.7424 13.0684 18.1279 14.1312 17.5865C15.306 16.9881 15.38 15.3053 14.2618 14.6185C13.1624 13.9433 11.0056 14.2488 10.6711 15.1271C10.5897 15.3406 10.2808 15.4359 9.67002 15.4359H8.78661L8.57458 14.1803C8.45809 13.4899 8.30171 12.2245 8.22751 11.3684C8.09886 9.88663 8.11901 9.77353 8.64618 9.00715C9.33652 8.00393 10.2524 7.40711 11.7019 7.01598C11.737 7.00654 12.3452 7.41494 13.0531 7.92378ZM6.95236 10.1626C6.95315 10.5771 7.0114 11.3973 7.08161 11.9855L7.20906 13.0552L6.53129 12.9899L5.85352 12.9248L5.79588 11.1671L5.73823 9.40932H6.3444C6.91167 9.40932 6.95076 9.45774 6.95236 10.1626ZM20.8708 11.1671L20.8131 12.9248L20.1354 12.9899L19.4576 13.0552L19.5851 11.9855C19.6553 11.3973 19.7135 10.5771 19.7143 10.1626C19.7159 9.45774 19.755 9.40932 20.3223 9.40932H20.9284L20.8708 11.1671ZM7.43725 14.7565C7.58246 15.339 7.48652 15.5447 7.16339 15.3437C6.90668 15.184 6.87676 14.2306 7.12848 14.2306C7.22622 14.2306 7.36524 14.4672 7.43725 14.7565ZM13.7323 15.7372C14.1154 16.202 13.6309 16.6412 12.7349 16.6412C12.3125 16.6412 11.8777 16.5098 11.7376 16.3398C11.3545 15.875 11.839 15.4359 12.7349 15.4359C13.1574 15.4359 13.5922 15.5672 13.7323 15.7372ZM17.0052 20.2167C17.3335 20.9497 17.3307 21.0235 16.9358 22.087C16.7094 22.6958 16.3945 23.3694 16.2357 23.5837C15.9582 23.9582 15.91 23.9367 15.0084 23.0359L14.0699 22.0986L15.2474 20.7826C15.895 20.0588 16.4786 19.4638 16.5443 19.4602C16.6099 19.4566 16.8173 19.7971 17.0052 20.2167ZM11.5047 22.9976L10.5782 23.9307L10.1876 23.1484C9.40434 21.5803 9.28805 20.9489 9.65147 20.241L9.98178 19.5976L11.2065 20.831L12.4312 22.0645L11.5047 22.9976ZM14.13 20.2412C14.1328 20.4361 13.4526 21.0606 13.2374 21.0606C13.1089 21.0606 12.8056 20.8479 12.563 20.588L12.1222 20.1153L13.1255 20.136C13.6772 20.1474 14.1292 20.1948 14.13 20.2412ZM9.01639 23.3614C9.43944 24.2933 10.3145 25.8795 10.9611 26.8863C11.6076 27.8933 12.1366 28.7571 12.1366 28.8061C12.1366 28.8552 9.66823 28.8951 6.65137 28.8951C0.434152 28.8951 0.904483 29.0522 1.46218 27.1609C1.83996 25.8793 3.09298 24.1143 4.14693 23.3786C4.7878 22.9313 7.62035 21.726 8.14733 21.6763C8.20218 21.6711 8.59313 22.4295 9.01639 23.3614ZM20.4713 22.3696C21.1608 22.6195 22.0885 23.0775 22.5325 23.3875C23.5751 24.1151 24.8283 25.8851 25.2045 27.1609C25.7622 29.0522 26.2325 28.8951 20.0153 28.8951C16.9984 28.8951 14.5301 28.8552 14.5301 28.8061C14.5301 28.7571 15.0591 27.8933 15.7055 26.8863C16.3522 25.8795 17.2272 24.2943 17.6503 23.3636C18.5096 21.4734 18.2503 21.5649 20.4713 22.3696ZM15.3279 25.1589C15.3279 25.3875 13.4799 28.2676 13.3333 28.2676C13.2041 28.2676 11.3387 25.4011 11.3387 25.2027C11.3387 25.1195 11.761 24.559 12.277 23.957L13.2151 22.8626L14.2716 23.9134C14.8526 24.4913 15.3279 25.0518 15.3279 25.1589ZM19.316 23.5731C19.0952 23.8411 19.104 23.9451 19.3686 24.2119C19.7965 24.6426 20.3604 24.4034 20.2786 23.8258C20.2006 23.2756 19.6748 23.1376 19.316 23.5731ZM21.4448 24.6097C21.1875 24.8688 21.3168 25.3103 21.8065 25.8445C22.0787 26.1412 22.505 26.6372 22.7539 26.9466C23.165 27.457 23.2428 27.4823 23.5976 27.2196C23.9285 26.9749 23.9541 26.8535 23.7628 26.4309C23.1917 25.1685 21.8986 24.1526 21.4448 24.6097Z" fill="#757575"/>
</svg>
