<svg width="25" height="12" viewBox="0 0 25 12" fill="none" xmlns="http://www.w3.org/2000/svg">
  <path fill-rule="evenodd" clip-rule="evenodd" d="M6.73817 11.7163C7.32933 11.1303 7.08283 10.6593 5.21117 8.79829L3.42233 7.01969L13.8778 7.01969C24.1112 7.01969 24.3405 7.01258 24.6667 6.68928C24.85 6.50755 25 6.21018 25 6.02845C25 5.84673 24.85 5.54936 24.6667 5.36763C24.3405 5.04432 24.1112 5.03722 13.8778 5.03722L3.42233 5.03722L5.21117 3.25862C6.75133 1.72716 7 1.40517 7 0.942103C7 0.328199 6.46867 -0.0301313 5.804 0.135735C5.591 0.188766 4.19783 1.44862 2.70833 2.93514C0.718832 4.92075 0 5.74331 0 6.0344C0 6.32682 0.7335 7.15763 2.79717 9.20321C5.72 12.1004 6.10367 12.3451 6.73817 11.7163Z" fill="#C4C4C4"/>
</svg>
