<svg width="18" height="18" viewBox="0 0 18 18" fill="none" xmlns="http://www.w3.org/2000/svg">
  <path fill-rule="evenodd" clip-rule="evenodd" d="M5.99297 0.065941C3.49463 0.484169 1.21756 2.39842 0.390793 4.77564C-0.500674 7.339 0.162424 10.235 2.08004 12.1525C4.61687 14.6891 8.34785 14.9539 11.4344 12.8163C11.6187 12.6886 11.9732 12.9992 14.3215 15.3455C17.1254 18.147 17.2929 18.265 17.7782 17.7798C18.2652 17.2928 18.1469 17.1242 15.373 14.3527C13.9179 12.8988 12.7274 11.6646 12.7274 11.61C12.7274 11.5554 12.8609 11.3357 13.024 11.1218C13.8171 10.0821 14.3615 8.05846 14.2254 6.65671C13.9159 3.47057 11.8309 0.993547 8.80747 0.220342C7.95388 0.00208836 6.7643 -0.0632072 5.99297 0.065941ZM9.52697 2.06882C14.1328 4.34503 13.672 10.874 8.79075 12.4982C8.15183 12.7108 7.80753 12.7481 6.84018 12.7092C5.76544 12.6661 5.5847 12.6222 4.71837 12.194C3.48573 11.5849 2.63251 10.737 2.07872 9.57084C0.766957 6.80894 1.80249 3.59623 4.45356 2.20326C5.59757 1.60213 5.82209 1.55367 7.32446 1.58337C8.53172 1.6073 8.6426 1.63171 9.52697 2.06882Z" fill="white"/>
</svg>
