<svg width="35" height="30" viewBox="0 0 35 30" fill="none" xmlns="http://www.w3.org/2000/svg">
  <path fill-rule="evenodd" clip-rule="evenodd" d="M21.4518 1.59058C19.4575 2.45741 17.6799 3.28805 17.5012 3.43645C17.0553 3.80631 17.0585 9.81274 17.5056 11.9224C17.932 13.9337 18.9491 15.8936 20.3781 17.4569C21.6845 18.8864 25.0602 21.2863 25.7644 21.2863C26.4686 21.2863 29.8443 18.8864 31.1506 17.4569C33.5787 14.8003 34.3422 12.3113 34.3486 7.03316C34.3523 3.78525 34.3335 3.64806 33.8372 3.32538C32.7881 2.64314 26.2756 -0.0139151 25.687 5.48831e-05C25.3517 0.00807047 23.4458 0.723748 21.4518 1.59058ZM29.7149 3.76692L32.2914 4.86391L32.2854 6.26092C32.2602 12.2405 31.1974 15.0057 27.9751 17.474C25.8704 19.0863 25.8695 19.0865 24.5905 18.2474C22.7453 17.0371 21.117 15.2517 20.3159 13.5604C19.5846 12.0166 19.5809 11.9911 19.5809 8.36856V4.72811L22.6688 3.40668C25.5377 2.17892 25.8058 2.10609 26.4476 2.37771C26.8275 2.53848 28.298 3.16369 29.7149 3.76692ZM1.78313 6.33237C1.4412 6.38436 0.900265 6.7375 0.580787 7.11721L0 7.80724V17.9923C0 29.2276 0.00206111 29.2453 1.40135 29.7331C2.42254 30.089 31.93 30.089 32.9512 29.7331C34.2025 29.2968 34.3525 28.6803 34.3525 23.9751C34.3525 19.5654 34.2783 19.223 33.322 19.223C32.3722 19.223 32.2914 19.5776 32.2914 23.7347V27.6967H17.1763H2.06115V21.2842V14.8717H8.23155C14.3484 14.8717 14.4052 14.8674 14.7585 14.3626C15.2175 13.7076 15.2086 13.5911 14.6571 13.0396C14.2222 12.6047 13.8938 12.5816 8.1301 12.5816H2.06115V10.5204V8.45925H8.23155C14.3484 8.45925 14.4052 8.4549 14.7585 7.95015C15.2175 7.29516 15.2086 7.17859 14.6571 6.62712C14.2208 6.19084 13.9183 6.17069 8.30186 6.20343C5.0583 6.22221 2.12505 6.28038 1.78313 6.33237ZM27.0469 8.05847C26.3008 8.97156 25.4839 9.97649 25.2317 10.2914C24.9796 10.6063 24.7295 10.8124 24.6761 10.7494C24.6227 10.6864 24.2483 10.1453 23.8439 9.54708C23.089 8.43017 22.3862 8.15031 21.8024 8.73407C21.2965 9.23997 21.5191 9.93916 22.7911 11.8393C24.0422 13.7079 24.5735 14.0674 25.3212 13.5514C25.9462 13.1202 30.0012 7.78205 30.0012 7.39066C30.0012 6.79865 29.5679 6.3981 28.9278 6.3981C28.555 6.3981 28.0127 6.87674 27.0469 8.05847ZM4.62614 19.4979C4.27277 19.8512 4.27277 20.656 4.62614 21.0094C4.80867 21.1919 5.80512 21.2842 7.59534 21.2842C10.1086 21.2842 10.3071 21.2514 10.5503 20.7973C10.7395 20.4437 10.743 20.1611 10.5632 19.7667C10.3229 19.2391 10.2355 19.223 7.60817 19.223C5.80787 19.223 4.8089 19.3151 4.62614 19.4979Z" fill="#757575"/>
</svg>
