<svg width="16" height="10" viewBox="0 0 16 10" fill="none" xmlns="http://www.w3.org/2000/svg">
  <path fill-rule="evenodd" clip-rule="evenodd" d="M8.98999 0.786487V4.04351C8.98646 4.09731 8.99575 4.15118 9.01715 4.20067C9.03855 4.25017 9.07142 4.29386 9.11304 4.32814C9.15465 4.36243 9.2038 4.38634 9.25647 4.39788C9.30914 4.40941 9.36382 4.40824 9.41595 4.39449C9.71595 4.37349 10.3939 1.59448 10.6949 0.988483C10.8547 0.646792 11.1114 0.359577 11.433 0.162494C11.5343 0.0707136 11.6636 0.0157502 11.8 0.00648825H14.678C14.7557 0.0195663 14.8287 0.0522156 14.8903 0.101337C14.9519 0.150458 14.9999 0.214453 15.0299 0.28728C15.0599 0.360108 15.0709 0.439354 15.0618 0.517597C15.0527 0.595839 15.0239 0.670479 14.978 0.734485C14.753 1.23449 12.823 4.34451 12.723 4.47051C12.6026 4.6331 12.5215 4.82133 12.486 5.0205C12.5253 5.25587 12.6339 5.47418 12.798 5.64751C12.998 5.87351 14.614 7.65251 14.765 7.80251C14.9073 7.96591 15.0024 8.16505 15.04 8.3785C15.0039 8.56046 14.9029 8.72307 14.7556 8.83589C14.6084 8.94872 14.4251 9.00403 14.24 8.9915C13.614 8.9915 12.0739 8.9915 11.8979 8.9915C11.5462 8.8684 11.2226 8.67632 10.946 8.4265C10.721 8.2265 9.88696 7.27449 9.76196 7.14949C9.71965 7.09861 9.66559 7.05882 9.60443 7.03356C9.54327 7.00829 9.47684 6.99832 9.41095 7.0045C9.26095 7.0045 8.97595 7.0195 8.98895 7.5895C9.02469 7.98438 8.94184 8.38096 8.75098 8.7285C8.65334 8.82212 8.53762 8.89481 8.41089 8.9421C8.28415 8.98938 8.14908 9.01027 8.01398 9.0035C6.99109 9.06551 5.97386 8.81173 5.09998 8.27651C3.52598 7.29951 1.73396 4.68851 0.899963 3.02251C0.402492 2.19538 0.0951165 1.26799 0 0.307483C0.05 0.131483 0.0499521 0.00749533 0.225952 0.00749533C0.401952 0.00749533 2.61499 0.00749533 2.82599 0.00749533C2.97228 0.0795967 3.09431 0.192905 3.177 0.333484C3.252 0.433484 3.82396 2.14549 3.99896 2.44649C4.17396 2.74749 5.03694 4.3965 5.50494 4.3965C5.66034 4.36599 5.79738 4.27528 5.88617 4.14415C5.97496 4.01303 6.0083 3.85211 5.97894 3.69649C5.97894 3.29649 5.97894 1.7175 5.97894 1.5165C5.78871 1.07309 5.44004 0.716543 5.00098 0.516498C5.11032 0.371261 5.24979 0.25139 5.40979 0.165088C5.56979 0.0787859 5.74655 0.0280924 5.92798 0.016498C6.52798 -0.00850198 8.03297 -0.00851517 8.35797 0.0404848C8.53241 0.0745076 8.69005 0.166937 8.80493 0.302539C8.91981 0.438142 8.9851 0.608831 8.98999 0.786487Z" fill="#757575"/>
</svg>
