<svg width="24" height="25" viewBox="0 0 24 25" fill="none" xmlns="http://www.w3.org/2000/svg">
  <path fill-rule="evenodd" clip-rule="evenodd" d="M0.262689 0.277375C-0.0764742 0.6565 -0.0886874 1.20498 0.234632 1.53233C0.476915 1.77751 1.33827 2.01016 2.8093 2.22778C3.22537 2.28941 3.64013 2.38945 3.7309 2.45024C3.82184 2.51087 4.51007 5.7321 5.26052 9.60852C6.01097 13.4848 6.7228 16.7917 6.84246 16.9572C7.04595 17.2388 7.5084 17.258 14.0791 17.258C19.3251 17.258 21.1487 17.2072 21.2969 17.0572C21.4932 16.8587 23.7389 7.39523 23.7499 6.72016C23.7531 6.52776 23.6199 6.24584 23.4539 6.09385C23.1814 5.84433 22.3403 5.81744 14.8028 5.81744H6.45361L6.28841 5.02412C6.19763 4.58787 5.99578 3.57359 5.83982 2.77025C5.68385 1.96707 5.46748 1.18694 5.35888 1.03679C5.23065 0.859257 4.47343 0.626771 3.19451 0.372073C0.80601 -0.103587 0.608949 -0.109933 0.262689 0.277375ZM21.6102 7.80075C21.6102 7.88125 21.2842 9.36551 20.8858 11.0993C20.4874 12.8331 20.1101 14.4961 20.0475 14.7945L19.9335 15.3373H14.1116H8.28955L7.59588 11.7882C7.21446 9.83633 6.86441 8.10756 6.81819 7.94689C6.73897 7.67165 7.16627 7.65461 14.1722 7.65461C18.3143 7.65461 21.6102 7.71941 21.6102 7.80075ZM7.85466 18.9213C7.03754 19.2161 6.45956 19.7616 6.07798 20.5983C5.34304 22.2097 6.09778 24.0523 7.78485 24.7657C9.30275 25.4075 11.0017 24.691 11.7257 23.1035C11.8933 22.7361 12.0304 22.1724 12.0304 21.8509C12.0304 20.5559 11.0065 19.2014 9.76322 18.852C8.97068 18.6292 8.62971 18.6415 7.85466 18.9213ZM17.0971 18.9213C16.2799 19.2161 15.702 19.7616 15.3204 20.5983C14.5854 22.2097 15.3402 24.0523 17.0273 24.7657C18.5452 25.4075 20.2441 24.691 20.9681 23.1035C21.1357 22.7361 21.2728 22.1724 21.2728 21.8509C21.2728 20.5559 20.2489 19.2014 19.0056 18.852C18.2131 18.6292 17.8721 18.6415 17.0971 18.9213ZM9.7553 20.9582C10.1748 21.3424 10.1575 22.3753 9.72493 22.7715C8.95121 23.48 7.74656 22.9372 7.74656 21.88C7.74656 21.557 7.86952 21.1553 8.01971 20.9873C8.36498 20.6011 9.34748 20.5846 9.7553 20.9582ZM19.037 20.999C19.4958 21.512 19.4285 22.3406 18.8896 22.8096C18.3854 23.2485 17.815 23.2206 17.2778 22.7306C16.9088 22.394 16.8998 21.3923 17.2621 20.9873C17.6326 20.5729 18.662 20.5798 19.037 20.999Z" fill="white"/>
</svg>
