<svg width="10" height="20" viewBox="0 0 10 20" fill="none" xmlns="http://www.w3.org/2000/svg">
  <path fill-rule="evenodd" clip-rule="evenodd" d="M8.94727 3.01147L9.41316 0.054911C8.21963 -0.0263895 7.02172 -0.0173967 5.82954 0.0817967C4.99808 0.192479 4.23805 0.610036 3.69873 1.25246C3.18972 1.94128 2.93767 2.78649 2.9864 3.64159V7.51194L0 7.48956V10.4864L2.9864 10.4969V19.4561L5.99222 19.4486V10.4894H9.53711L10 7.49253H5.99222C5.99222 7.49253 5.99222 4.08056 5.99222 3.74608C6.00539 3.63039 6.04253 3.51874 6.10122 3.41817C6.1599 3.31759 6.23892 3.23033 6.33316 3.16193C6.4274 3.09354 6.53478 3.04547 6.64859 3.02085C6.7624 2.99623 6.8801 2.99556 6.99419 3.01889C7.65418 3.00993 8.94727 3.01147 8.94727 3.01147Z" fill="white"/>
</svg>
