<svg width="8" height="14" viewBox="0 0 8 14" fill="none" xmlns="http://www.w3.org/2000/svg">
  <path fill-rule="evenodd" clip-rule="evenodd" d="M3.61753 2.05571e-05C4.30898 0.00357667 4.9839 0.211852 5.5571 0.598592C6.1303 0.985333 6.57608 1.53321 6.83823 2.17306C7.10038 2.8129 7.16714 3.51606 7.03006 4.19381C6.89299 4.87155 6.55822 5.49351 6.06803 5.98119C5.57783 6.46888 4.95417 6.80045 4.27573 6.93404C3.59729 7.06764 2.89451 6.99726 2.25601 6.73183C1.61752 6.4664 1.07194 6.01782 0.688143 5.44265C0.304348 4.86747 0.0995288 4.19149 0.0995197 3.50002C0.100306 3.0391 0.191999 2.58286 0.369295 2.1574C0.546591 1.73194 0.806028 1.34561 1.13278 1.02053C1.45954 0.695445 1.84717 0.43798 2.27353 0.262868C2.69989 0.0877574 3.15661 -0.00155771 3.61753 2.05571e-05ZM3.62552 1.95601C3.92553 1.95898 4.21797 2.05065 4.46597 2.2195C4.71398 2.38836 4.90648 2.62685 5.0192 2.9049C5.13192 3.18295 5.15981 3.48812 5.0994 3.782C5.03898 4.07589 4.89292 4.34532 4.67966 4.55636C4.4664 4.76739 4.19547 4.91062 3.90097 4.96795C3.60647 5.02528 3.3016 4.99416 3.02475 4.87853C2.7479 4.7629 2.51143 4.56792 2.34519 4.31817C2.17894 4.06841 2.09036 3.77505 2.09055 3.47503C2.09214 3.07021 2.25438 2.6826 2.54166 2.39739C2.82894 2.11217 3.21772 1.9527 3.62253 1.95403L3.62552 1.95601ZM3.61753 8.01601C4.2882 8.01108 4.953 7.89031 5.58255 7.65902C5.93346 7.4319 6.30754 7.24283 6.69852 7.09502C6.91852 7.10302 7.28151 7.46801 7.21951 8.41201C7.18451 8.95101 6.2015 9.17302 5.8555 9.37902C5.6296 9.50189 5.38446 9.58543 5.13053 9.62603C5.13053 9.62603 5.97751 10.532 6.19351 10.755C6.6322 11.0746 6.96292 11.5205 7.14151 12.033C7.08444 12.2763 6.96064 12.4988 6.78397 12.6754C6.60729 12.8521 6.38476 12.9759 6.14151 13.033C5.60434 12.7575 5.12823 12.3766 4.74155 11.913C4.15855 11.357 3.6265 10.844 3.6265 10.844C3.6265 10.844 3.08051 11.33 2.51151 11.892C2.13381 12.3575 1.6692 12.745 1.14353 13.033C0.873159 12.9633 0.628876 12.8166 0.44034 12.6107C0.251804 12.4047 0.127124 12.1485 0.0815143 11.873C0.416465 11.3166 0.835057 10.8151 1.32254 10.386C1.57163 10.1157 1.8389 9.8628 2.12253 9.62902C1.89921 9.59809 1.68317 9.52765 1.48453 9.42101C1.00353 9.15401 -0.0264793 8.87401 0.000520657 8.37801C0.0285207 7.86601 0.159548 7.07802 0.616548 7.07802C1.00699 7.22021 1.38189 7.4018 1.73551 7.62002C2.32572 7.8897 2.96869 8.02432 3.61753 8.01403V8.01601Z" fill="white"/>
</svg>
